<?xml version="1.0" standalone="no"?>
<!DOCTYPE svg PUBLIC "-//W3C//DTD SVG 20010904//EN"
 "http://www.w3.org/TR/2001/REC-SVG-20010904/DTD/svg10.dtd">
<svg version="1.0" xmlns="http://www.w3.org/2000/svg"
 width="500.000000pt" height="200.000000pt" viewBox="0 0 500.000000 200.000000"
 preserveAspectRatio="xMidYMid meet">

<g transform="translate(0.000000,200.000000) scale(0.100000,-0.100000)"
fill="#000000" stroke="none">
<path d="M545 1540 c-266 -31 -465 -255 -465 -525 0 -143 54 -269 160 -375 76
-77 162 -125 257 -145 94 -20 323 -20 392 1 61 18 123 70 154 128 30 57 30
165 0 222 -65 123 -189 172 -329 129 -65 -20 -97 -19 -117 3 -29 32 -21 69 19
90 16 8 40 6 105 -9 94 -23 147 -21 207 10 189 97 183 367 -10 451 -44 19 -74
24 -178 26 -69 1 -156 -1 -195 -6z"/>
<path d="M1260 1524 c-50 -22 -89 -61 -116 -119 -24 -49 -24 -54 -24 -384 0
-367 3 -387 58 -451 145 -170 412 -72 412 151 0 60 14 83 47 77 13 -2 20 -21
29 -86 13 -95 42 -147 102 -186 100 -66 225 -52 309 36 60 62 63 84 63 457 0
332 0 337 -24 386 -43 92 -112 135 -215 135 -129 0 -221 -88 -236 -228 -9 -88
-26 -110 -59 -76 -11 10 -16 34 -16 69 0 139 -97 235 -234 235 -34 -1 -77 -8
-96 -16z"/>
<path d="M2888 1512 c-68 -39 -663 -648 -688 -704 -28 -62 -26 -132 6 -196 59
-119 197 -162 319 -100 22 12 103 83 181 159 77 77 143 139 147 139 15 0 5
-22 -37 -87 -43 -67 -44 -69 -29 -103 61 -147 261 -182 378 -65 71 70 75 97
75 460 0 340 -6 385 -57 445 -68 81 -204 105 -295 52z"/>
<path d="M3425 1521 c-51 -23 -93 -65 -116 -116 -17 -36 -19 -72 -19 -390 0
-318 2 -354 19 -390 84 -185 347 -185 432 0 17 36 19 72 19 390 0 318 -2 354
-19 390 -39 86 -117 135 -216 135 -37 0 -75 -7 -100 -19z"/>
<path d="M3955 1521 c-50 -22 -108 -86 -126 -137 -11 -30 -14 -117 -14 -379 0
-389 2 -402 79 -473 86 -80 221 -84 311 -10 34 29 75 94 75 120 0 7 -18 40
-40 73 -38 57 -49 85 -32 85 4 0 70 -65 147 -144 153 -158 194 -185 280 -186
82 0 125 17 177 70 67 70 70 91 66 495 -3 371 -4 379 -64 439 -118 118 -342
71 -395 -84 -10 -27 -7 -36 36 -96 26 -36 44 -68 41 -71 -6 -6 -147 121 -236
212 -73 75 -132 105 -207 105 -34 0 -74 -8 -98 -19z"/>
</g>
</svg>
